<svg xmlns="http://www.w3.org/2000/svg" xmlns:xlink="http://www.w3.org/1999/xlink" width="1280" zoomAndPan="magnify" viewBox="0 0 960 540.000001" height="720" preserveAspectRatio="xMidYMid meet" version="1.0"><defs><filter x="0%" y="0%" width="100%" height="100%" id="38c0745536"><feColorMatrix values="0 0 0 0 1 0 0 0 0 1 0 0 0 0 1 0 0 0 1 0" color-interpolation-filters="sRGB"/></filter><clipPath id="156b81e7d7"><path d="M 0.886719 0 L 959.113281 0 L 959.113281 539 L 0.886719 539 Z M 0.886719 0 " clip-rule="nonzero"/></clipPath><clipPath id="713f121956"><path d="M 433 0 L 959.113281 0 L 959.113281 199 L 433 199 Z M 433 0 " clip-rule="nonzero"/></clipPath><mask id="1780fe4ec2"><g filter="url(#38c0745536)"><rect x="-96" width="1152" fill="#000000" y="-54" height="648.000001" fill-opacity="0.098"/></g></mask><clipPath id="5efdf5535a"><path d="M 20 0 L 526.113281 0 L 526.113281 160 L 20 160 Z M 20 0 " clip-rule="nonzero"/></clipPath><clipPath id="1b2597f3e3"><path d="M 505.074219 -276.136719 L 573.757812 112.359375 L 65.835938 202.15625 L -2.84375 -186.339844 Z M 505.074219 -276.136719 " clip-rule="nonzero"/></clipPath><clipPath id="70018c69cc"><path d="M 505.074219 -276.136719 L 573.757812 112.359375 L 65.835938 202.15625 L -2.84375 -186.339844 Z M 505.074219 -276.136719 " clip-rule="nonzero"/></clipPath><clipPath id="770bf6960f"><rect x="0" width="527" y="0" height="199"/></clipPath><clipPath id="6799c19968"><path d="M 806 0 L 959.113281 0 L 959.113281 265 L 806 265 Z M 806 0 " clip-rule="nonzero"/></clipPath><clipPath id="6003a634e1"><path d="M 664 0 L 959.113281 0 L 959.113281 112 L 664 112 Z M 664 0 " clip-rule="nonzero"/></clipPath><mask id="27c2074b40"><g filter="url(#38c0745536)"><rect x="-96" width="1152" fill="#000000" y="-54" height="648.000001" fill-opacity="0.098"/></g></mask><clipPath id="53b9c0bab6"><path d="M 23 30 L 544 30 L 544 181 L 23 181 Z M 23 30 " clip-rule="nonzero"/></clipPath><clipPath id="3702114317"><path d="M 51.257812 455.792969 L -0.535156 64.6875 L 510.792969 -3.027344 L 562.589844 388.074219 Z M 51.257812 455.792969 " clip-rule="nonzero"/></clipPath><clipPath id="43befe97b9"><path d="M 51.257812 455.792969 L -0.535156 64.6875 L 510.792969 -3.027344 L 562.589844 388.074219 Z M 51.257812 455.792969 " clip-rule="nonzero"/></clipPath><clipPath id="8adfe32e33"><rect x="0" width="560" y="0" height="181"/></clipPath><clipPath id="240bbb2792"><path d="M 0.886719 149 L 163 149 L 163 527 L 0.886719 527 Z M 0.886719 149 " clip-rule="nonzero"/></clipPath><clipPath id="aaee67c4dc"><path d="M 0.886719 368 L 366 368 L 366 527.214844 L 0.886719 527.214844 Z M 0.886719 368 " clip-rule="nonzero"/></clipPath><clipPath id="b43559d21c"><path d="M 0.886719 209 L 199 209 L 199 527.214844 L 0.886719 527.214844 Z M 0.886719 209 " clip-rule="nonzero"/></clipPath><clipPath id="d6c27d8a38"><path d="M 0.886719 0 L 959.113281 0 L 959.113281 539 L 0.886719 539 Z M 0.886719 0 " clip-rule="nonzero"/></clipPath><clipPath id="bb48698b55"><path d="M 371 412 L 959.113281 412 L 959.113281 539 L 371 539 Z M 371 412 " clip-rule="nonzero"/></clipPath><clipPath id="0b25ee6dd1"><path d="M 364 424 L 959.113281 424 L 959.113281 539 L 364 539 Z M 364 424 " clip-rule="nonzero"/></clipPath><clipPath id="03daa46036"><path d="M 26.738281 369.984375 L 34.226562 369.984375 L 34.226562 377.46875 L 26.738281 377.46875 Z M 26.738281 369.984375 " clip-rule="nonzero"/></clipPath><clipPath id="8eedabb9d3"><path d="M 54.789062 369.984375 L 62.273438 369.984375 L 62.273438 377.46875 L 54.789062 377.46875 Z M 54.789062 369.984375 " clip-rule="nonzero"/></clipPath><clipPath id="d6224fbf12"><path d="M 81.253906 369.984375 L 88.738281 369.984375 L 88.738281 377.46875 L 81.253906 377.46875 Z M 81.253906 369.984375 " clip-rule="nonzero"/></clipPath><clipPath id="d915e07d24"><path d="M 109.117188 369.984375 L 116.601562 369.984375 L 116.601562 377.46875 L 109.117188 377.46875 Z M 109.117188 369.984375 " clip-rule="nonzero"/></clipPath></defs><g clip-path="url(#156b81e7d7)"><path fill="#ffffff" d="M 0.886719 0 L 959.113281 0 L 959.113281 546.488281 L 0.886719 546.488281 Z M 0.886719 0 " fill-opacity="1" fill-rule="nonzero"/><path fill="#ffffff" d="M 0.886719 0 L 959.113281 0 L 959.113281 539 L 0.886719 539 Z M 0.886719 0 " fill-opacity="1" fill-rule="nonzero"/><path fill="#feffdf" d="M 0.886719 0 L 959.113281 0 L 959.113281 539 L 0.886719 539 Z M 0.886719 0 " fill-opacity="1" fill-rule="nonzero"/></g><g clip-path="url(#713f121956)"><g mask="url(#1780fe4ec2)"><g transform="matrix(1, 0, 0, 1, 433, 0.000000000000017795)"><g clip-path="url(#770bf6960f)"><g clip-path="url(#5efdf5535a)"><g clip-path="url(#1b2597f3e3)"><g clip-path="url(#70018c69cc)"><path fill="#767676" d="M 318.832031 -197.050781 C 276.925781 -170.964844 167.777344 -194.304688 115.386719 -195.613281 C 57.691406 -197.042969 10.945312 -146.496094 21.601562 -72.269531 C 37.734375 42.921875 108.667969 -2.386719 162.179688 55.101562 C 183.050781 77.484375 177.03125 115.195312 195.875 134.0625 C 224.226562 162.878906 267.910156 160.792969 295.550781 157.667969 C 356.019531 150.851562 402.949219 107.320312 458.972656 89.3125 C 525.066406 68.464844 555.980469 49.964844 540.128906 -53.648438 C 506.839844 -265.875 400.5 -247.429688 318.832031 -197.050781 Z M 318.832031 -197.050781 " fill-opacity="1" fill-rule="nonzero"/></g></g></g></g></g></g></g><g clip-path="url(#6799c19968)"><path fill="#faa41a" d="M 854.511719 0.292969 C 845.078125 13.847656 840.363281 29.578125 843.664062 42.128906 C 847.730469 57.445312 860.996094 58.09375 868.539062 79.953125 C 870.308594 85.023438 877.679688 106.410156 867.890625 122.257812 C 857.398438 139.347656 838.179688 131.746094 821.792969 148.125 C 806.285156 163.679688 803.339844 190.726562 809.824219 210.699219 C 821.203125 245.933594 861.113281 256.539062 876.144531 260.546875 C 885.34375 263.019531 914.289062 269.5 959.210938 254.828125 L 959.210938 0.292969 Z M 854.511719 0.292969 " fill-opacity="1" fill-rule="nonzero"/></g><g clip-path="url(#6003a634e1)"><path fill="#f6bb23" d="M 959.210938 0.0585938 L 690.445312 0 C 691.742188 5.539062 699.996094 6.128906 702.175781 14.90625 C 705.535156 28.222656 688.972656 35.941406 689.148438 50.257812 C 689.324219 66.640625 711.433594 86.023438 730.828125 84.964844 C 761.777344 81.78125 766.492188 21.152344 827.449219 78.011719 C 841.894531 93.859375 838.179688 104.523438 848.910156 109.589844 C 858.222656 113.953125 869.898438 110.179688 908.921875 85.609375 C 932.859375 69.761719 949.660156 60.746094 959.152344 52.378906 C 959.210938 52.378906 959.210938 3.949219 959.210938 0.0585938 Z M 690.976562 10.664062 C 680.660156 10.488281 680.660156 26.691406 690.976562 26.574219 C 701.292969 26.691406 701.292969 10.546875 690.976562 10.664062 Z M 675.175781 25.21875 C 661.382812 25.042969 661.382812 46.664062 675.175781 46.488281 C 688.972656 46.664062 688.972656 25.042969 675.175781 25.21875 Z M 675.175781 25.21875 " fill-opacity="1" fill-rule="nonzero"/></g><path fill="#feffdf" d="M 933.210938 171.164062 C 930.972656 171.164062 929.144531 172.988281 929.144531 175.230469 C 929.144531 177.46875 930.972656 179.292969 933.210938 179.292969 C 935.453125 179.292969 937.28125 177.46875 937.28125 175.230469 C 937.28125 172.988281 935.453125 171.164062 933.210938 171.164062 Z M 933.210938 177.996094 C 931.679688 177.996094 930.382812 176.761719 930.382812 175.167969 C 930.382812 173.578125 931.621094 172.339844 933.210938 172.339844 C 934.804688 172.339844 936.042969 173.578125 936.042969 175.167969 C 936.042969 176.761719 934.746094 177.996094 933.210938 177.996094 Z M 933.210938 181.828125 C 930.972656 181.828125 929.144531 183.652344 929.144531 185.894531 C 929.144531 188.132812 930.972656 189.957031 933.210938 189.957031 C 935.453125 189.957031 937.28125 188.132812 937.28125 185.894531 C 937.28125 183.652344 935.453125 181.828125 933.210938 181.828125 Z M 933.210938 188.664062 C 931.679688 188.664062 930.382812 187.425781 930.382812 185.835938 C 930.382812 184.242188 931.621094 183.007812 933.210938 183.007812 C 934.804688 183.007812 936.042969 184.242188 936.042969 185.835938 C 936.042969 187.425781 934.746094 188.664062 933.210938 188.664062 Z M 943.882812 147.714844 C 946.121094 147.714844 947.949219 145.886719 947.949219 143.648438 C 947.949219 141.410156 946.121094 139.582031 943.882812 139.582031 C 941.640625 139.582031 939.816406 141.410156 939.816406 143.648438 C 939.816406 145.886719 941.640625 147.714844 943.882812 147.714844 Z M 943.882812 140.878906 C 945.414062 140.878906 946.710938 142.117188 946.710938 143.707031 C 946.710938 145.296875 945.472656 146.535156 943.882812 146.535156 C 942.289062 146.535156 941.050781 145.296875 941.050781 143.707031 C 941.050781 142.117188 942.347656 140.878906 943.882812 140.878906 Z M 933.210938 192.433594 C 930.972656 192.433594 929.144531 194.261719 929.144531 196.5 C 929.144531 198.738281 930.972656 200.5625 933.210938 200.5625 C 935.453125 200.5625 937.28125 198.738281 937.28125 196.5 C 937.28125 194.261719 935.453125 192.433594 933.210938 192.433594 Z M 933.210938 199.328125 C 931.679688 199.328125 930.382812 198.089844 930.382812 196.5 C 930.382812 194.90625 931.621094 193.671875 933.210938 193.671875 C 934.804688 193.671875 936.042969 194.90625 936.042969 196.5 C 936.042969 198.089844 934.746094 199.328125 933.210938 199.328125 Z M 933.210938 203.097656 C 930.972656 203.097656 929.144531 204.925781 929.144531 207.164062 C 929.144531 209.402344 930.972656 211.230469 933.210938 211.230469 C 935.453125 211.230469 937.28125 209.402344 937.28125 207.164062 C 937.28125 204.925781 935.453125 203.097656 933.210938 203.097656 Z M 933.210938 209.992188 C 931.679688 209.992188 930.382812 208.753906 930.382812 207.164062 C 930.382812 205.574219 931.621094 204.335938 933.210938 204.335938 C 934.804688 204.335938 936.042969 205.574219 936.042969 207.164062 C 936.042969 208.753906 934.746094 209.992188 933.210938 209.992188 Z M 933.210938 149.835938 C 930.972656 149.835938 929.144531 151.660156 929.144531 153.898438 C 929.144531 156.136719 930.972656 157.964844 933.210938 157.964844 C 935.453125 157.964844 937.28125 156.136719 937.28125 153.898438 C 937.28125 151.660156 935.453125 149.835938 933.210938 149.835938 Z M 933.210938 156.726562 C 931.679688 156.726562 930.382812 155.492188 930.382812 153.898438 C 930.382812 152.308594 931.621094 151.070312 933.210938 151.070312 C 934.804688 151.070312 936.042969 152.308594 936.042969 153.898438 C 936.042969 155.492188 934.746094 156.726562 933.210938 156.726562 Z M 943.882812 171.574219 C 941.640625 171.574219 939.816406 173.402344 939.816406 175.640625 C 939.816406 177.878906 941.640625 179.707031 943.882812 179.707031 C 946.121094 179.707031 947.949219 177.878906 947.949219 175.640625 C 947.949219 173.402344 946.121094 171.574219 943.882812 171.574219 Z M 943.882812 178.410156 C 942.347656 178.410156 941.050781 177.171875 941.050781 175.582031 C 941.050781 173.992188 942.289062 172.753906 943.882812 172.753906 C 945.472656 172.753906 946.710938 173.992188 946.710938 175.582031 C 946.710938 177.171875 945.472656 178.410156 943.882812 178.410156 Z M 943.882812 182.238281 C 941.640625 182.238281 939.816406 184.066406 939.816406 186.304688 C 939.816406 188.542969 941.640625 190.371094 943.882812 190.371094 C 946.121094 190.371094 947.949219 188.542969 947.949219 186.304688 C 947.949219 184.066406 946.121094 182.238281 943.882812 182.238281 Z M 943.882812 189.074219 C 942.347656 189.074219 941.050781 187.835938 941.050781 186.246094 C 941.050781 184.65625 942.289062 183.417969 943.882812 183.417969 C 945.472656 183.417969 946.710938 184.65625 946.710938 186.246094 C 946.710938 187.835938 945.472656 189.074219 943.882812 189.074219 Z M 933.210938 160.5 C 930.972656 160.5 929.144531 162.324219 929.144531 164.5625 C 929.144531 166.804688 930.972656 168.628906 933.210938 168.628906 C 935.453125 168.628906 937.28125 166.804688 937.28125 164.5625 C 937.28125 162.324219 935.453125 160.5 933.210938 160.5 Z M 933.210938 167.332031 C 931.679688 167.332031 930.382812 166.097656 930.382812 164.503906 C 930.382812 162.914062 931.621094 161.675781 933.210938 161.675781 C 934.804688 161.675781 936.042969 162.914062 936.042969 164.503906 C 936.042969 166.097656 934.746094 167.332031 933.210938 167.332031 Z M 943.882812 160.910156 C 941.640625 160.910156 939.816406 162.738281 939.816406 164.976562 C 939.816406 167.214844 941.640625 169.042969 943.882812 169.042969 C 946.121094 169.042969 947.949219 167.214844 947.949219 164.976562 C 947.949219 162.738281 946.121094 160.910156 943.882812 160.910156 Z M 943.882812 167.746094 C 942.347656 167.746094 941.050781 166.507812 941.050781 164.917969 C 941.050781 163.328125 942.289062 162.089844 943.882812 162.089844 C 945.472656 162.089844 946.710938 163.328125 946.710938 164.917969 C 946.710938 166.507812 945.472656 167.746094 943.882812 167.746094 Z M 943.882812 192.847656 C 941.640625 192.847656 939.816406 194.671875 939.816406 196.910156 C 939.816406 199.148438 941.640625 200.976562 943.882812 200.976562 C 946.121094 200.976562 947.949219 199.148438 947.949219 196.910156 C 947.949219 194.671875 946.121094 192.847656 943.882812 192.847656 Z M 943.882812 199.738281 C 942.347656 199.738281 941.050781 198.503906 941.050781 196.910156 C 941.050781 195.320312 942.289062 194.082031 943.882812 194.082031 C 945.472656 194.082031 946.710938 195.320312 946.710938 196.910156 C 946.710938 198.503906 945.472656 199.738281 943.882812 199.738281 Z M 943.882812 150.246094 C 941.640625 150.246094 939.816406 152.074219 939.816406 154.3125 C 939.816406 156.550781 941.640625 158.378906 943.882812 158.378906 C 946.121094 158.378906 947.949219 156.550781 947.949219 154.3125 C 947.949219 152.074219 946.121094 150.246094 943.882812 150.246094 Z M 943.882812 157.140625 C 942.347656 157.140625 941.050781 155.902344 941.050781 154.3125 C 941.050781 152.722656 942.289062 151.484375 943.882812 151.484375 C 945.472656 151.484375 946.710938 152.722656 946.710938 154.3125 C 946.710938 155.902344 945.472656 157.140625 943.882812 157.140625 Z M 933.210938 128.503906 C 930.972656 128.503906 929.144531 130.332031 929.144531 132.570312 C 929.144531 134.808594 930.972656 136.636719 933.210938 136.636719 C 935.453125 136.636719 937.28125 134.808594 937.28125 132.570312 C 937.28125 130.332031 935.453125 128.503906 933.210938 128.503906 Z M 933.210938 135.398438 C 931.679688 135.398438 930.382812 134.160156 930.382812 132.570312 C 930.382812 130.980469 931.621094 129.742188 933.210938 129.742188 C 934.804688 129.742188 936.042969 130.980469 936.042969 132.570312 C 936.042969 134.160156 934.746094 135.398438 933.210938 135.398438 Z M 933.210938 139.167969 C 930.972656 139.167969 929.144531 140.996094 929.144531 143.234375 C 929.144531 145.472656 930.972656 147.300781 933.210938 147.300781 C 935.453125 147.300781 937.28125 145.472656 937.28125 143.234375 C 937.28125 140.996094 935.453125 139.167969 933.210938 139.167969 Z M 933.210938 146.0625 C 931.679688 146.0625 930.382812 144.824219 930.382812 143.234375 C 930.382812 141.644531 931.621094 140.40625 933.210938 140.40625 C 934.804688 140.40625 936.042969 141.644531 936.042969 143.234375 C 936.042969 144.824219 934.746094 146.0625 933.210938 146.0625 Z M 943.882812 203.511719 C 941.640625 203.511719 939.816406 205.335938 939.816406 207.574219 C 939.816406 209.816406 941.640625 211.640625 943.882812 211.640625 C 946.121094 211.640625 947.949219 209.816406 947.949219 207.574219 C 947.949219 205.335938 946.121094 203.511719 943.882812 203.511719 Z M 943.882812 210.402344 C 942.347656 210.402344 941.050781 209.167969 941.050781 207.574219 C 941.050781 206.042969 942.289062 204.746094 943.882812 204.746094 C 945.472656 204.746094 946.710938 205.984375 946.710938 207.574219 C 946.710938 209.109375 945.472656 210.402344 943.882812 210.402344 Z M 943.882812 214.175781 C 941.640625 214.175781 939.816406 216 939.816406 218.242188 C 939.816406 220.480469 941.640625 222.304688 943.882812 222.304688 C 946.121094 222.304688 947.949219 220.480469 947.949219 218.242188 C 947.949219 216 946.121094 214.175781 943.882812 214.175781 Z M 943.882812 221.007812 C 942.347656 221.007812 941.050781 219.773438 941.050781 218.179688 C 941.050781 216.589844 942.289062 215.351562 943.882812 215.351562 C 945.472656 215.351562 946.710938 216.589844 946.710938 218.179688 C 946.710938 219.773438 945.472656 221.007812 943.882812 221.007812 Z M 835.351562 35 C 854.628906 35 870.308594 19.324219 870.308594 0.0585938 L 869.367188 0.0585938 C 869.367188 18.796875 854.097656 34.054688 835.351562 34.054688 C 816.605469 34.054688 801.335938 18.855469 801.335938 0.0585938 L 800.390625 0.0585938 C 800.390625 19.324219 816.074219 35 835.351562 35 Z M 835.351562 39.769531 C 857.222656 39.769531 875.027344 21.976562 875.027344 0.117188 L 874.082031 0.117188 C 874.082031 21.445312 856.691406 38.828125 835.351562 38.828125 C 814.011719 38.828125 796.617188 21.445312 796.617188 0.117188 L 795.675781 0.117188 C 795.675781 21.976562 813.480469 39.769531 835.351562 39.769531 Z M 835.351562 53.027344 C 806.167969 53.027344 782.410156 29.285156 782.410156 0.117188 L 781.46875 0.117188 C 781.46875 29.8125 805.636719 53.972656 835.351562 53.972656 C 865.0625 53.972656 889.234375 29.8125 889.234375 0.117188 L 888.289062 0.117188 C 888.347656 29.285156 864.589844 53.027344 835.351562 53.027344 Z M 835.351562 49.257812 C 862.46875 49.257812 884.515625 27.222656 884.515625 0.117188 L 883.574219 0.117188 C 883.574219 26.691406 861.9375 48.316406 835.351562 48.316406 C 808.761719 48.316406 787.128906 26.691406 787.128906 0.117188 L 786.183594 0.117188 C 786.183594 27.164062 808.234375 49.257812 835.351562 49.257812 Z M 835.351562 44.484375 C 859.875 44.484375 879.800781 24.570312 879.800781 0.0585938 L 878.859375 0.0585938 C 878.859375 24.039062 859.34375 43.542969 835.351562 43.542969 C 811.355469 43.542969 791.84375 24.039062 791.84375 0.0585938 L 790.960938 0.0585938 C 790.960938 24.570312 810.886719 44.484375 835.351562 44.484375 Z M 835.351562 44.484375 " fill-opacity="1" fill-rule="nonzero"/><g mask="url(#27c2074b40)"><g transform="matrix(1, 0, 0, 1, 99, 358)"><g clip-path="url(#8adfe32e33)"><g clip-path="url(#53b9c0bab6)"><g clip-path="url(#3702114317)"><g clip-path="url(#43befe97b9)"><path fill="#767676" d="M 240.75 384.84375 C 283.75 360.601562 391.78125 388.644531 444.066406 392.222656 C 501.648438 396.144531 550.539062 347.671875 543.105469 273.050781 C 531.976562 157.273438 459.148438 199.46875 408.175781 139.714844 C 388.292969 116.449219 395.9375 79.035156 377.933594 59.367188 C 350.851562 29.351562 307.121094 29.542969 279.367188 31.46875 C 218.660156 35.65625 169.890625 77.117188 113.140625 92.683594 C 46.207031 110.648438 14.523438 127.792969 25.871094 231.996094 C 49.941406 445.464844 156.980469 431.640625 240.75 384.84375 Z M 240.75 384.84375 " fill-opacity="1" fill-rule="nonzero"/></g></g></g></g></g></g><g clip-path="url(#240bbb2792)"><path fill="#faa41a" d="M 93.902344 526.792969 C 107.386719 507.40625 114.128906 484.902344 109.410156 466.949219 C 103.59375 445.03125 84.628906 444.105469 73.84375 412.835938 C 71.3125 405.585938 60.777344 374.988281 74.769531 352.316406 C 89.769531 327.871094 117.246094 338.746094 140.675781 315.3125 C 162.84375 293.058594 167.054688 254.371094 157.785156 225.796875 C 141.519531 175.394531 84.460938 160.222656 62.96875 154.488281 C 49.824219 150.949219 8.441406 141.679688 -55.78125 162.664062 L -55.78125 526.792969 Z M 93.902344 526.792969 " fill-opacity="1" fill-rule="nonzero"/></g><g clip-path="url(#aaee67c4dc)"><path fill="#f6bb23" d="M -55.78125 527.128906 L 328.453125 527.214844 C 326.597656 519.289062 314.800781 518.449219 311.683594 505.890625 C 306.878906 486.839844 330.5625 475.796875 330.308594 455.316406 C 330.054688 431.882812 298.449219 404.152344 270.722656 405.667969 C 226.472656 410.222656 219.730469 496.953125 132.585938 415.617188 C 111.9375 392.941406 117.246094 377.6875 101.90625 370.4375 C 88.589844 364.199219 71.902344 369.59375 16.109375 404.742188 C -18.109375 427.417969 -42.128906 440.3125 -55.695312 452.28125 C -55.78125 452.28125 -55.78125 521.566406 -55.78125 527.128906 Z M 327.695312 511.957031 C 342.445312 512.210938 342.445312 489.03125 327.695312 489.199219 C 312.945312 489.03125 312.945312 512.125 327.695312 511.957031 Z M 350.28125 491.136719 C 370.003906 491.390625 370.003906 460.457031 350.28125 460.710938 C 330.5625 460.457031 330.5625 491.390625 350.28125 491.136719 Z M 350.28125 491.136719 " fill-opacity="1" fill-rule="nonzero"/></g><g clip-path="url(#b43559d21c)"><path fill="#feffdf" d="M -18.613281 282.355469 C -15.410156 282.355469 -12.796875 279.742188 -12.796875 276.539062 C -12.796875 273.335938 -15.410156 270.722656 -18.613281 270.722656 C -21.816406 270.722656 -24.429688 273.335938 -24.429688 276.539062 C -24.429688 279.742188 -21.816406 282.355469 -18.613281 282.355469 Z M -18.613281 272.578125 C -16.421875 272.578125 -14.566406 274.347656 -14.566406 276.625 C -14.566406 278.898438 -16.335938 280.667969 -18.613281 280.667969 C -20.890625 280.667969 -22.660156 278.898438 -22.660156 276.625 C -22.660156 274.347656 -20.804688 272.578125 -18.613281 272.578125 Z M -18.613281 267.097656 C -15.410156 267.097656 -12.796875 264.488281 -12.796875 261.285156 C -12.796875 258.082031 -15.410156 255.46875 -18.613281 255.46875 C -21.816406 255.46875 -24.429688 258.082031 -24.429688 261.285156 C -24.429688 264.488281 -21.816406 267.097656 -18.613281 267.097656 Z M -18.613281 257.320312 C -16.421875 257.320312 -14.566406 259.09375 -14.566406 261.367188 C -14.566406 263.644531 -16.335938 265.414062 -18.613281 265.414062 C -20.890625 265.414062 -22.660156 263.644531 -22.660156 261.367188 C -22.660156 259.09375 -20.804688 257.320312 -18.613281 257.320312 Z M -33.867188 315.902344 C -37.070312 315.902344 -39.683594 318.515625 -39.683594 321.71875 C -39.683594 324.921875 -37.070312 327.535156 -33.867188 327.535156 C -30.664062 327.535156 -28.050781 324.921875 -28.050781 321.71875 C -28.050781 318.515625 -30.664062 315.902344 -33.867188 315.902344 Z M -33.867188 325.679688 C -36.058594 325.679688 -37.914062 323.910156 -37.914062 321.632812 C -37.914062 319.359375 -36.144531 317.589844 -33.867188 317.589844 C -31.59375 317.589844 -29.824219 319.359375 -29.824219 321.632812 C -29.824219 323.910156 -31.675781 325.679688 -33.867188 325.679688 Z M -18.613281 251.925781 C -15.410156 251.925781 -12.796875 249.3125 -12.796875 246.113281 C -12.796875 242.910156 -15.410156 240.296875 -18.613281 240.296875 C -21.816406 240.296875 -24.429688 242.910156 -24.429688 246.113281 C -24.429688 249.3125 -21.816406 251.925781 -18.613281 251.925781 Z M -18.613281 242.066406 C -16.421875 242.066406 -14.566406 243.835938 -14.566406 246.113281 C -14.566406 248.386719 -16.335938 250.15625 -18.613281 250.15625 C -20.890625 250.15625 -22.660156 248.386719 -22.660156 246.113281 C -22.660156 243.835938 -20.804688 242.066406 -18.613281 242.066406 Z M -18.613281 236.671875 C -15.410156 236.671875 -12.796875 234.058594 -12.796875 230.855469 C -12.796875 227.652344 -15.410156 225.039062 -18.613281 225.039062 C -21.816406 225.039062 -24.429688 227.652344 -24.429688 230.855469 C -24.429688 234.058594 -21.816406 236.671875 -18.613281 236.671875 Z M -18.613281 226.808594 C -16.421875 226.808594 -14.566406 228.578125 -14.566406 230.855469 C -14.566406 233.132812 -16.335938 234.902344 -18.613281 234.902344 C -20.890625 234.902344 -22.660156 233.132812 -22.660156 230.855469 C -22.660156 228.578125 -20.804688 226.808594 -18.613281 226.808594 Z M -18.613281 312.867188 C -15.410156 312.867188 -12.796875 310.253906 -12.796875 307.050781 C -12.796875 303.847656 -15.410156 301.234375 -18.613281 301.234375 C -21.816406 301.234375 -24.429688 303.847656 -24.429688 307.050781 C -24.429688 310.253906 -21.816406 312.867188 -18.613281 312.867188 Z M -18.613281 303.007812 C -16.421875 303.007812 -14.566406 304.777344 -14.566406 307.050781 C -14.566406 309.328125 -16.335938 311.097656 -18.613281 311.097656 C -20.890625 311.097656 -22.660156 309.328125 -22.660156 307.050781 C -22.660156 304.777344 -20.804688 303.007812 -18.613281 303.007812 Z M -33.867188 281.765625 C -30.664062 281.765625 -28.050781 279.152344 -28.050781 275.949219 C -28.050781 272.746094 -30.664062 270.132812 -33.867188 270.132812 C -37.070312 270.132812 -39.683594 272.746094 -39.683594 275.949219 C -39.683594 279.152344 -37.070312 281.765625 -33.867188 281.765625 Z M -33.867188 271.988281 C -31.675781 271.988281 -29.824219 273.757812 -29.824219 276.035156 C -29.824219 278.308594 -31.59375 280.078125 -33.867188 280.078125 C -36.144531 280.078125 -37.914062 278.308594 -37.914062 276.035156 C -37.914062 273.757812 -36.144531 271.988281 -33.867188 271.988281 Z M -33.867188 266.507812 C -30.664062 266.507812 -28.050781 263.894531 -28.050781 260.695312 C -28.050781 257.492188 -30.664062 254.878906 -33.867188 254.878906 C -37.070312 254.878906 -39.683594 257.492188 -39.683594 260.695312 C -39.683594 263.894531 -37.070312 266.507812 -33.867188 266.507812 Z M -33.867188 256.730469 C -31.675781 256.730469 -29.824219 258.5 -29.824219 260.777344 C -29.824219 263.054688 -31.59375 264.824219 -33.867188 264.824219 C -36.144531 264.824219 -37.914062 263.054688 -37.914062 260.777344 C -37.914062 258.5 -36.144531 256.730469 -33.867188 256.730469 Z M -18.613281 297.613281 C -15.410156 297.613281 -12.796875 295 -12.796875 291.796875 C -12.796875 288.59375 -15.410156 285.980469 -18.613281 285.980469 C -21.816406 285.980469 -24.429688 288.59375 -24.429688 291.796875 C -24.429688 295 -21.816406 297.613281 -18.613281 297.613281 Z M -18.613281 287.835938 C -16.421875 287.835938 -14.566406 289.605469 -14.566406 291.878906 C -14.566406 294.15625 -16.335938 295.925781 -18.613281 295.925781 C -20.890625 295.925781 -22.660156 294.15625 -22.660156 291.878906 C -22.660156 289.605469 -20.804688 287.835938 -18.613281 287.835938 Z M -33.867188 297.023438 C -30.664062 297.023438 -28.050781 294.410156 -28.050781 291.207031 C -28.050781 288.003906 -30.664062 285.390625 -33.867188 285.390625 C -37.070312 285.390625 -39.683594 288.003906 -39.683594 291.207031 C -39.683594 294.410156 -37.070312 297.023438 -33.867188 297.023438 Z M -33.867188 287.246094 C -31.675781 287.246094 -29.824219 289.015625 -29.824219 291.289062 C -29.824219 293.566406 -31.59375 295.335938 -33.867188 295.335938 C -36.144531 295.335938 -37.914062 293.566406 -37.914062 291.289062 C -37.914062 289.015625 -36.144531 287.246094 -33.867188 287.246094 Z M -33.867188 251.335938 C -30.664062 251.335938 -28.050781 248.722656 -28.050781 245.519531 C -28.050781 242.320312 -30.664062 239.707031 -33.867188 239.707031 C -37.070312 239.707031 -39.683594 242.320312 -39.683594 245.519531 C -39.683594 248.722656 -37.070312 251.335938 -33.867188 251.335938 Z M -33.867188 241.476562 C -31.675781 241.476562 -29.824219 243.246094 -29.824219 245.519531 C -29.824219 247.796875 -31.59375 249.566406 -33.867188 249.566406 C -36.144531 249.566406 -37.914062 247.796875 -37.914062 245.519531 C -37.914062 243.246094 -36.144531 241.476562 -33.867188 241.476562 Z M -33.867188 312.277344 C -30.664062 312.277344 -28.050781 309.664062 -28.050781 306.460938 C -28.050781 303.257812 -30.664062 300.644531 -33.867188 300.644531 C -37.070312 300.644531 -39.683594 303.257812 -39.683594 306.460938 C -39.683594 309.664062 -37.070312 312.277344 -33.867188 312.277344 Z M -33.867188 302.417969 C -31.675781 302.417969 -29.824219 304.1875 -29.824219 306.460938 C -29.824219 308.738281 -31.59375 310.507812 -33.867188 310.507812 C -36.144531 310.507812 -37.914062 308.738281 -37.914062 306.460938 C -37.914062 304.1875 -36.144531 302.417969 -33.867188 302.417969 Z M -18.613281 343.378906 C -15.410156 343.378906 -12.796875 340.765625 -12.796875 337.566406 C -12.796875 334.363281 -15.410156 331.75 -18.613281 331.75 C -21.816406 331.75 -24.429688 334.363281 -24.429688 337.566406 C -24.429688 340.765625 -21.816406 343.378906 -18.613281 343.378906 Z M -18.613281 333.519531 C -16.421875 333.519531 -14.566406 335.289062 -14.566406 337.566406 C -14.566406 339.839844 -16.335938 341.609375 -18.613281 341.609375 C -20.890625 341.609375 -22.660156 339.839844 -22.660156 337.566406 C -22.660156 335.289062 -20.804688 333.519531 -18.613281 333.519531 Z M -18.613281 328.125 C -15.410156 328.125 -12.796875 325.511719 -12.796875 322.308594 C -12.796875 319.105469 -15.410156 316.492188 -18.613281 316.492188 C -21.816406 316.492188 -24.429688 319.105469 -24.429688 322.308594 C -24.429688 325.511719 -21.816406 328.125 -18.613281 328.125 Z M -18.613281 318.261719 C -16.421875 318.261719 -14.566406 320.03125 -14.566406 322.308594 C -14.566406 324.585938 -16.335938 326.355469 -18.613281 326.355469 C -20.890625 326.355469 -22.660156 324.585938 -22.660156 322.308594 C -22.660156 320.03125 -20.804688 318.261719 -18.613281 318.261719 Z M -33.867188 236.082031 C -30.664062 236.082031 -28.050781 233.46875 -28.050781 230.265625 C -28.050781 227.0625 -30.664062 224.449219 -33.867188 224.449219 C -37.070312 224.449219 -39.683594 227.0625 -39.683594 230.265625 C -39.683594 233.46875 -37.070312 236.082031 -33.867188 236.082031 Z M -33.867188 226.21875 C -31.675781 226.21875 -29.824219 227.988281 -29.824219 230.265625 C -29.824219 232.457031 -31.59375 234.3125 -33.867188 234.3125 C -36.144531 234.3125 -37.914062 232.539062 -37.914062 230.265625 C -37.914062 228.074219 -36.144531 226.21875 -33.867188 226.21875 Z M -33.867188 220.824219 C -30.664062 220.824219 -28.050781 218.210938 -28.050781 215.007812 C -28.050781 211.804688 -30.664062 209.191406 -33.867188 209.191406 C -37.070312 209.191406 -39.683594 211.804688 -39.683594 215.007812 C -39.683594 218.210938 -37.070312 220.824219 -33.867188 220.824219 Z M -33.867188 211.046875 C -31.675781 211.046875 -29.824219 212.816406 -29.824219 215.09375 C -29.824219 217.367188 -31.59375 219.140625 -33.867188 219.140625 C -36.144531 219.140625 -37.914062 217.367188 -37.914062 215.09375 C -37.914062 212.816406 -36.144531 211.046875 -33.867188 211.046875 Z M 121.292969 477.148438 C 93.734375 477.148438 71.3125 499.566406 71.3125 527.128906 L 72.664062 527.128906 C 72.664062 500.324219 94.492188 478.496094 121.292969 478.496094 C 148.09375 478.496094 169.921875 500.242188 169.921875 527.128906 L 171.269531 527.128906 C 171.269531 499.566406 148.851562 477.148438 121.292969 477.148438 Z M 121.292969 470.320312 C 90.023438 470.320312 64.570312 495.773438 64.570312 527.046875 L 65.921875 527.046875 C 65.921875 496.53125 90.78125 471.667969 121.292969 471.667969 C 151.800781 471.667969 176.664062 496.53125 176.664062 527.046875 L 178.011719 527.046875 C 178.011719 495.773438 152.558594 470.320312 121.292969 470.320312 Z M 121.292969 451.355469 C 163.011719 451.355469 196.976562 485.324219 196.976562 527.046875 L 198.324219 527.046875 C 198.324219 484.5625 163.769531 450.003906 121.292969 450.003906 C 78.816406 450.003906 44.261719 484.5625 44.261719 527.046875 L 45.609375 527.046875 C 45.523438 485.324219 79.488281 451.355469 121.292969 451.355469 Z M 121.292969 456.75 C 82.523438 456.75 51.003906 488.273438 51.003906 527.046875 L 52.351562 527.046875 C 52.351562 489.03125 83.28125 458.097656 121.292969 458.097656 C 159.304688 458.097656 190.234375 489.03125 190.234375 527.046875 L 191.582031 527.046875 C 191.582031 488.355469 160.0625 456.75 121.292969 456.75 Z M 121.292969 463.574219 C 86.230469 463.574219 57.746094 492.066406 57.746094 527.128906 L 59.09375 527.128906 C 59.09375 492.824219 86.988281 464.925781 121.292969 464.925781 C 155.59375 464.925781 183.492188 492.824219 183.492188 527.128906 L 184.753906 527.128906 C 184.753906 492.066406 156.269531 463.574219 121.292969 463.574219 Z M 121.292969 463.574219 " fill-opacity="1" fill-rule="nonzero"/></g><path fill="#f9a11b" d="M 713.429688 123.234375 C 720.9375 123.234375 727.089844 117.078125 727.089844 109.566406 C 727.089844 102.054688 720.9375 95.894531 713.429688 95.894531 C 705.925781 95.894531 699.769531 102.054688 699.769531 109.566406 C 699.769531 117.078125 705.925781 123.234375 713.429688 123.234375 Z M 737.75 91.539062 C 751.109375 91.539062 762.066406 80.722656 762.066406 67.203125 C 762.066406 53.832031 751.257812 42.867188 737.75 42.867188 C 724.390625 42.867188 713.429688 53.679688 713.429688 67.203125 C 713.429688 80.570312 724.238281 91.539062 737.75 91.539062 Z M 805.601562 213.371094 C 794.042969 205.257812 787.886719 206.910156 771.222656 202.703125 C 744.054688 195.945312 729.191406 173.109375 708.925781 144.117188 C 672.601562 92.140625 685.660156 57.886719 656.089844 38.359375 C 617.058594 12.671875 576.226562 60.441406 523.988281 35.355469 C 489.613281 18.828125 491.714844 -9.414062 461.09375 -37.054688 L 61.792969 -37.054688 L 61.792969 184.828125 C 134.597656 208.414062 693.765625 388.382812 783.082031 339.558594 C 819.558594 319.578125 828.417969 290.886719 828.417969 290.886719 C 836.671875 263.996094 827.816406 228.84375 805.601562 213.371094 Z M 858.441406 228.84375 C 841.925781 182.125 802.148438 163.34375 790.289062 158.539062 L 785.785156 169.957031 C 796.292969 174.160156 832.019531 191.136719 846.882812 232.898438 C 859.789062 269.253906 848.53125 300.652344 843.128906 312.519531 L 854.386719 317.625 C 860.390625 304.558594 872.851562 269.402344 858.441406 228.84375 Z M 858.441406 228.84375 " fill-opacity="1" fill-rule="nonzero"/><g clip-path="url(#d6c27d8a38)"><path fill="#1d4877" d="M 1023.714844 472.058594 C 1011.554688 452.980469 983.332031 416.925781 886.660156 380.871094 C 740.601562 326.339844 705.023438 371.558594 628.46875 329.195312 C 522.9375 270.757812 561.667969 169.054688 446.382812 77.417969 C 366.070312 13.570312 312.03125 34.902344 207.703125 -7.609375 C 189.238281 -15.273438 169.125 -24.886719 148.257812 -37.054688 L -9.660156 -37.054688 L -9.660156 417.976562 C -1.402344 420.53125 6.550781 422.183594 14.207031 423.082031 C 116.734375 434.800781 223.015625 321.230469 317.433594 376.0625 C 367.421875 405.058594 358.265625 443.0625 421.164062 474.011719 C 479.855469 502.703125 504.925781 476.714844 618.710938 496.394531 C 651.132812 501.953125 702.472656 511.265625 761.46875 539.507812 C 815.359375 565.347656 854.535156 596.742188 879.457031 619.726562 C 885.308594 626.335938 913.378906 655.933594 959.015625 658.9375 C 966.972656 659.386719 1009.453125 662.089844 1035.273438 635.5 C 1073.402344 596.144531 1052.835938 517.425781 1023.714844 472.058594 Z M 1023.714844 472.058594 " fill-opacity="1" fill-rule="nonzero"/><path fill="#1e2c5b" d="M 1036.625 453.277344 C 1024.464844 434.199219 996.242188 398.148438 899.570312 362.09375 C 753.511719 307.5625 717.933594 352.777344 641.378906 310.414062 C 535.847656 251.976562 574.578125 150.277344 459.289062 58.640625 C 378.980469 -5.207031 324.941406 16.125 220.613281 -26.386719 C 212.804688 -29.542969 204.851562 -33.148438 196.445312 -37.054688 L -9.660156 -37.054688 L -9.660156 394.542969 C 3.097656 399.949219 15.410156 402.953125 27.117188 404.304688 C 129.644531 416.023438 235.921875 302.453125 330.34375 357.285156 C 380.332031 386.277344 371.175781 424.285156 434.070312 455.230469 C 492.765625 483.925781 517.835938 457.9375 631.621094 477.617188 C 664.042969 483.171875 715.382812 492.488281 774.375 520.730469 C 828.265625 546.570312 867.445312 577.964844 892.363281 600.949219 C 898.21875 607.558594 926.289062 637.152344 971.925781 640.160156 C 979.878906 640.609375 1022.363281 643.3125 1048.183594 616.722656 C 1086.308594 577.363281 1065.59375 498.796875 1036.625 453.277344 Z M 197.34375 478.214844 C 174.378906 459.738281 170.773438 426.089844 189.238281 403.105469 L 186.835938 401.152344 C 167.324219 425.335938 171.226562 460.941406 195.394531 480.46875 C 219.5625 500 255.136719 496.09375 274.652344 472.058594 L 272.25 470.105469 C 253.9375 493.089844 220.3125 496.695312 197.34375 478.214844 Z M 229.917969 477.015625 C 250.785156 477.015625 267.746094 460.039062 267.746094 439.15625 C 267.746094 418.277344 250.785156 401.300781 229.917969 401.300781 C 209.054688 401.300781 192.089844 418.277344 192.089844 439.15625 C 192.089844 460.039062 209.054688 477.015625 229.917969 477.015625 Z M 229.917969 477.015625 " fill-opacity="1" fill-rule="nonzero"/></g><path fill="#f4792d" d="M 34.324219 33.402344 C 30.417969 33.402344 27.417969 36.554688 27.417969 40.3125 C 27.417969 44.21875 30.570312 47.222656 34.324219 47.222656 C 38.226562 47.222656 41.226562 44.066406 41.226562 40.3125 C 41.378906 36.554688 38.226562 33.402344 34.324219 33.402344 Z M 66.597656 209.3125 C 62.695312 209.3125 59.691406 212.46875 59.691406 216.226562 C 59.691406 220.128906 62.84375 223.136719 66.597656 223.136719 C 70.5 223.136719 73.503906 219.980469 73.503906 216.226562 C 73.652344 212.320312 70.5 209.3125 66.597656 209.3125 Z M 66.597656 253.179688 C 62.695312 253.179688 59.691406 256.335938 59.691406 260.089844 C 59.691406 263.996094 62.84375 267 66.597656 267 C 70.5 267 73.503906 263.847656 73.503906 260.089844 C 73.652344 256.335938 70.5 253.179688 66.597656 253.179688 Z M 34.324219 77.265625 C 30.417969 77.265625 27.417969 80.421875 27.417969 84.175781 C 27.417969 88.082031 30.570312 91.085938 34.324219 91.085938 C 38.226562 91.085938 41.226562 87.933594 41.226562 84.175781 C 41.378906 80.421875 38.226562 77.265625 34.324219 77.265625 Z M 34.324219 -10.613281 C 30.417969 -10.613281 27.417969 -7.460938 27.417969 -3.703125 C 27.417969 0.203125 30.570312 3.207031 34.324219 3.207031 C 38.226562 3.207031 41.226562 0.0507812 41.226562 -3.703125 C 41.378906 -7.460938 38.226562 -10.613281 34.324219 -10.613281 Z M 98.871094 3.355469 C 102.773438 3.355469 105.777344 0.203125 105.777344 -3.554688 C 105.777344 -7.460938 102.625 -10.464844 98.871094 -10.464844 C 94.96875 -10.464844 91.964844 -7.308594 91.964844 -3.554688 C 91.964844 0.203125 95.117188 3.355469 98.871094 3.355469 Z M 34.324219 253.179688 C 30.417969 253.179688 27.417969 256.335938 27.417969 260.089844 C 27.417969 263.996094 30.570312 267 34.324219 267 C 38.226562 267 41.226562 263.847656 41.226562 260.089844 C 41.378906 256.335938 38.226562 253.179688 34.324219 253.179688 Z M 34.324219 121.28125 C 30.417969 121.28125 27.417969 124.4375 27.417969 128.191406 C 27.417969 132.097656 30.570312 135.101562 34.324219 135.101562 C 38.226562 135.101562 41.226562 131.949219 41.226562 128.191406 C 41.378906 124.4375 38.226562 121.28125 34.324219 121.28125 Z M 66.597656 165.296875 C 62.695312 165.296875 59.691406 168.453125 59.691406 172.207031 C 59.691406 175.964844 62.84375 179.121094 66.597656 179.121094 C 70.5 179.121094 73.503906 175.964844 73.503906 172.207031 C 73.503906 168.453125 70.5 165.296875 66.597656 165.296875 Z M 34.324219 165.296875 C 30.417969 165.296875 27.417969 168.453125 27.417969 172.207031 C 27.417969 175.964844 30.570312 179.121094 34.324219 179.121094 C 38.226562 179.121094 41.226562 175.964844 41.226562 172.207031 C 41.226562 168.453125 38.226562 165.296875 34.324219 165.296875 Z M 34.324219 209.3125 C 30.417969 209.3125 27.417969 212.46875 27.417969 216.226562 C 27.417969 220.128906 30.570312 223.136719 34.324219 223.136719 C 38.226562 223.136719 41.226562 219.980469 41.226562 216.226562 C 41.378906 212.320312 38.226562 209.3125 34.324219 209.3125 Z M 98.871094 121.28125 C 94.96875 121.28125 91.964844 124.4375 91.964844 128.191406 C 91.964844 132.097656 95.117188 135.101562 98.871094 135.101562 C 102.773438 135.101562 105.777344 131.949219 105.777344 128.191406 C 105.925781 124.4375 102.773438 121.28125 98.871094 121.28125 Z M 98.871094 165.296875 C 94.96875 165.296875 91.964844 168.453125 91.964844 172.207031 C 91.964844 176.113281 95.117188 179.121094 98.871094 179.121094 C 102.773438 179.121094 105.777344 175.964844 105.777344 172.207031 C 105.925781 168.453125 102.773438 165.296875 98.871094 165.296875 Z M 98.871094 209.3125 C 94.96875 209.3125 91.964844 212.46875 91.964844 216.226562 C 91.964844 220.128906 95.117188 223.136719 98.871094 223.136719 C 102.773438 223.136719 105.777344 219.980469 105.777344 216.226562 C 105.925781 212.320312 102.773438 209.3125 98.871094 209.3125 Z M 98.871094 33.402344 C 94.96875 33.402344 91.964844 36.554688 91.964844 40.3125 C 91.964844 44.21875 95.117188 47.222656 98.871094 47.222656 C 102.773438 47.222656 105.777344 44.066406 105.777344 40.3125 C 105.925781 36.554688 102.773438 33.402344 98.871094 33.402344 Z M 98.871094 77.265625 C 94.96875 77.265625 91.964844 80.421875 91.964844 84.175781 C 91.964844 88.082031 95.117188 91.085938 98.871094 91.085938 C 102.773438 91.085938 105.777344 87.933594 105.777344 84.175781 C 105.925781 80.421875 102.773438 77.265625 98.871094 77.265625 Z M 66.597656 33.402344 C 62.695312 33.402344 59.691406 36.554688 59.691406 40.3125 C 59.691406 44.21875 62.84375 47.222656 66.597656 47.222656 C 70.5 47.222656 73.503906 44.066406 73.503906 40.3125 C 73.652344 36.554688 70.5 33.402344 66.597656 33.402344 Z M 66.597656 121.28125 C 62.695312 121.28125 59.691406 124.4375 59.691406 128.191406 C 59.691406 132.097656 62.84375 135.101562 66.597656 135.101562 C 70.5 135.101562 73.503906 131.949219 73.503906 128.191406 C 73.652344 124.4375 70.5 121.28125 66.597656 121.28125 Z M 98.871094 253.179688 C 94.96875 253.179688 91.964844 256.335938 91.964844 260.089844 C 91.964844 263.996094 95.117188 267 98.871094 267 C 102.773438 267 105.777344 263.847656 105.777344 260.089844 C 105.925781 256.335938 102.773438 253.179688 98.871094 253.179688 Z M 66.597656 77.265625 C 62.695312 77.265625 59.691406 80.421875 59.691406 84.175781 C 59.691406 88.082031 62.84375 91.085938 66.597656 91.085938 C 70.5 91.085938 73.503906 87.933594 73.503906 84.175781 C 73.652344 80.421875 70.5 77.265625 66.597656 77.265625 Z M 66.597656 -10.613281 C 62.695312 -10.613281 59.691406 -7.460938 59.691406 -3.703125 C 59.691406 0.203125 62.84375 3.207031 66.597656 3.207031 C 70.5 3.207031 73.503906 0.0507812 73.503906 -3.703125 C 73.652344 -7.460938 70.5 -10.613281 66.597656 -10.613281 Z M 66.597656 -10.613281 " fill-opacity="1" fill-rule="nonzero"/><g clip-path="url(#bb48698b55)"><path fill="#1d4877" d="M 391.234375 524.292969 C 398.476562 535.648438 415.285156 557.113281 472.867188 578.574219 C 559.863281 611.039062 581.054688 584.121094 626.652344 609.339844 C 689.507812 644.128906 666.441406 704.671875 735.109375 759.222656 C 782.945312 797.230469 815.132812 784.53125 877.273438 809.839844 C 888.269531 814.402344 900.25 820.125 912.679688 827.367188 L 1006.738281 827.367188 L 1006.738281 556.488281 C 1001.820312 554.96875 997.082031 553.984375 992.523438 553.445312 C 931.457031 546.472656 868.152344 614.078125 811.914062 581.4375 C 782.140625 564.179688 787.59375 541.550781 750.128906 523.128906 C 715.167969 506.050781 700.238281 521.519531 632.464844 509.804688 C 613.152344 506.496094 582.574219 500.953125 547.433594 484.140625 C 515.335938 468.757812 492 450.066406 477.15625 436.382812 C 473.671875 432.449219 456.949219 414.832031 429.769531 413.042969 C 425.03125 412.773438 399.726562 411.164062 384.347656 426.992188 C 361.636719 450.425781 373.886719 497.285156 391.234375 524.292969 Z M 391.234375 524.292969 " fill-opacity="1" fill-rule="nonzero"/></g><g clip-path="url(#0b25ee6dd1)"><path fill="#1e2c5b" d="M 383.542969 535.472656 C 390.785156 546.828125 407.59375 568.292969 465.175781 589.753906 C 552.171875 622.21875 573.363281 595.300781 618.964844 620.519531 C 681.820312 655.304688 658.75 715.851562 727.417969 770.402344 C 775.253906 808.410156 807.441406 795.710938 869.582031 821.019531 C 874.230469 822.898438 878.972656 825.042969 883.976562 827.367188 L 1006.738281 827.367188 L 1006.738281 570.4375 C 999.140625 567.21875 991.808594 565.429688 984.835938 564.625 C 923.765625 557.648438 860.464844 625.257812 804.222656 592.617188 C 774.449219 575.355469 779.902344 552.730469 742.441406 534.308594 C 707.480469 517.226562 692.546875 532.699219 624.773438 520.984375 C 605.460938 517.675781 574.882812 512.128906 539.746094 495.316406 C 507.644531 479.9375 484.308594 461.246094 469.46875 447.5625 C 465.980469 443.628906 449.261719 426.011719 422.078125 424.222656 C 417.339844 423.953125 392.039062 422.34375 376.660156 438.171875 C 353.949219 461.601562 366.289062 508.375 383.542969 535.472656 Z M 883.441406 520.625 C 897.121094 531.625 899.265625 551.65625 888.269531 565.339844 L 889.699219 566.503906 C 901.324219 552.105469 899 530.910156 884.605469 519.285156 C 870.207031 507.660156 849.019531 509.984375 837.394531 524.292969 L 838.824219 525.457031 C 849.734375 511.773438 869.761719 509.625 883.441406 520.625 Z M 864.039062 521.339844 C 851.609375 521.339844 841.507812 531.445312 841.507812 543.878906 C 841.507812 556.308594 851.609375 566.414062 864.039062 566.414062 C 876.46875 566.414062 886.570312 556.308594 886.570312 543.878906 C 886.570312 531.445312 876.46875 521.339844 864.039062 521.339844 Z M 864.039062 521.339844 " fill-opacity="1" fill-rule="nonzero"/></g><g clip-path="url(#03daa46036)"><path fill="#f4792d" d="M 30.484375 369.984375 C 28.414062 369.984375 26.738281 371.660156 26.738281 373.726562 C 26.738281 375.792969 28.414062 377.46875 30.484375 377.46875 C 32.550781 377.46875 34.226562 375.792969 34.226562 373.726562 C 34.226562 371.660156 32.550781 369.984375 30.484375 369.984375 " fill-opacity="1" fill-rule="nonzero"/></g><g clip-path="url(#8eedabb9d3)"><path fill="#f4792d" d="M 58.53125 369.984375 C 56.464844 369.984375 54.789062 371.660156 54.789062 373.726562 C 54.789062 375.792969 56.464844 377.46875 58.53125 377.46875 C 60.597656 377.46875 62.273438 375.792969 62.273438 373.726562 C 62.273438 371.660156 60.597656 369.984375 58.53125 369.984375 " fill-opacity="1" fill-rule="nonzero"/></g><g clip-path="url(#d6224fbf12)"><path fill="#f4792d" d="M 84.996094 369.984375 C 82.929688 369.984375 81.253906 371.660156 81.253906 373.726562 C 81.253906 375.792969 82.929688 377.46875 84.996094 377.46875 C 87.0625 377.46875 88.738281 375.792969 88.738281 373.726562 C 88.738281 371.660156 87.0625 369.984375 84.996094 369.984375 " fill-opacity="1" fill-rule="nonzero"/></g><g clip-path="url(#d915e07d24)"><path fill="#f4792d" d="M 112.859375 369.984375 C 110.792969 369.984375 109.117188 371.660156 109.117188 373.726562 C 109.117188 375.792969 110.792969 377.46875 112.859375 377.46875 C 114.925781 377.46875 116.601562 375.792969 116.601562 373.726562 C 116.601562 371.660156 114.925781 369.984375 112.859375 369.984375 " fill-opacity="1" fill-rule="nonzero"/></g></svg>